<?xml version="1.0" standalone="no"?>
<!DOCTYPE svg PUBLIC "-//W3C//DTD SVG 20010904//EN"
 "http://www.w3.org/TR/2001/REC-SVG-20010904/DTD/svg10.dtd">
<svg version="1.0" xmlns="http://www.w3.org/2000/svg"
 width="133.333333pt" height="100.000000pt" viewBox="0 0 133.333333 100.000000"
 preserveAspectRatio="xMidYMid meet">
<metadata>
Created by potrace 1.16, written by Peter Selinger 2001-2019
</metadata>
<g transform="translate(0.000000,100.000000) scale(0.013021,-0.013021)"
fill="#000000" stroke="none">
<path d="M1840 5344 c-14 -2 -65 -9 -115 -15 -117 -15 -218 -41 -335 -89 -479
-193 -812 -600 -917 -1115 -25 -127 -25 -435 1 -555 99 -465 376 -836 777
-1045 174 -90 252 -111 297 -79 21 14 22 21 22 168 l0 153 -122 -5 c-106 -4
-131 -1 -181 16 -100 36 -149 80 -202 185 -56 109 -100 166 -160 207 -59 40
-74 68 -49 88 23 17 99 10 144 -13 45 -23 107 -82 142 -134 70 -103 139 -149
240 -159 63 -5 188 22 192 42 13 53 42 127 62 153 30 40 30 43 -5 43 -50 0
-223 49 -296 84 -183 87 -291 239 -330 463 -40 228 1 431 112 563 23 28 24 32
12 67 -33 94 -6 338 40 362 42 23 228 -41 353 -120 l46 -30 74 15 c196 41 431
40 610 0 l68 -16 57 35 c126 76 236 117 313 117 l46 0 19 -57 c24 -76 31 -222
12 -290 -14 -52 -14 -53 14 -86 40 -49 86 -144 105 -218 21 -81 15 -322 -10
-414 -45 -165 -154 -306 -291 -377 -79 -41 -211 -82 -298 -93 -31 -4 -57 -9
-57 -11 0 -2 14 -23 30 -46 54 -74 60 -114 60 -405 0 -250 1 -264 20 -283 28
-28 72 -25 164 10 477 184 830 627 922 1160 13 74 15 136 11 280 -4 165 -8
198 -36 303 -76 289 -199 507 -401 707 -125 124 -226 199 -370 272 -133 68
-266 113 -405 138 -104 19 -332 33 -385 24z"/>
<path d="M4513 4605 c-197 -51 -322 -183 -382 -405 -43 -156 -45 -468 -5 -610
45 -160 135 -282 253 -344 94 -49 142 -63 277 -77 179 -19 350 8 486 77 l48
24 -2 363 -3 362 -253 3 -253 2 3 -127 3 -128 97 -3 97 -3 3 -135 c2 -107 0
-138 -11 -147 -9 -8 -56 -12 -125 -12 -91 0 -119 4 -156 21 -96 44 -150 129
-176 276 -19 109 -14 268 11 363 33 123 118 211 230 236 68 15 293 6 357 -14
35 -11 50 -12 56 -3 8 9 62 213 62 231 0 3 -19 15 -42 25 -122 54 -415 67
-575 25z"/>
<path d="M6585 4558 c-3 -13 -4 -324 -3 -693 l3 -670 147 -3 148 -3 2 298 3
298 227 3 228 2 2 -297 3 -298 148 -3 147 -3 0 696 0 696 -147 -3 -148 -3 -3
-257 -2 -258 -224 0 c-200 0 -225 2 -230 17 -4 9 -6 120 -6 247 0 127 1 237 0
244 0 9 -36 12 -145 12 -142 0 -145 0 -150 -22z"/>
<path d="M8855 4568 c-3 -7 -4 -319 -3 -693 l3 -680 105 0 104 0 9 31 9 31 67
-34 c161 -82 385 -77 489 12 87 75 133 227 134 444 0 111 -4 152 -22 218 -40
150 -133 243 -257 259 -85 10 -211 -1 -271 -25 -29 -12 -57 -21 -62 -21 -6 0
-10 91 -10 235 l0 235 -145 0 c-107 0 -147 -3 -150 -12z m535 -666 c23 -11 43
-33 58 -62 21 -42 23 -55 20 -190 -3 -158 -11 -187 -61 -224 -37 -28 -141 -29
-210 -3 l-47 19 2 221 3 222 50 17 c65 22 141 23 185 0z"/>
<path d="M5434 4531 c-62 -28 -89 -73 -89 -148 0 -72 19 -104 81 -141 31 -18
50 -22 92 -19 91 6 152 72 152 162 0 66 -29 112 -90 143 -54 27 -92 28 -146 3z"/>
<path d="M5915 4398 c-3 -7 -6 -71 -7 -142 l-3 -129 -58 -14 c-97 -22 -97 -22
-97 -116 0 -51 5 -88 12 -95 7 -7 40 -12 79 -12 l67 0 4 -247 c5 -288 12 -318
87 -393 64 -64 138 -84 288 -78 59 2 118 10 131 17 22 12 23 17 20 114 l-3
102 -52 -3 c-77 -5 -130 13 -154 51 -18 29 -19 48 -17 232 l3 200 105 5 105 5
0 120 0 120 -105 5 -105 5 -3 133 -3 132 -145 0 c-107 0 -146 -3 -149 -12z"/>
<path d="M5365 4128 c-3 -7 -4 -220 -3 -473 l3 -460 145 0 145 0 0 470 0 470
-143 3 c-108 2 -144 0 -147 -10z"/>
<path d="M7813 4134 c-21 -9 -18 -680 2 -759 33 -125 106 -184 254 -206 109
-16 237 3 337 50 36 17 68 31 69 31 2 0 6 -13 10 -30 l7 -30 99 0 99 0 -2 473
-3 472 -136 3 c-105 2 -139 -1 -147 -11 -8 -9 -13 -117 -14 -348 l-3 -334 -27
-13 c-56 -26 -133 -37 -177 -23 -75 22 -75 22 -81 396 l-5 330 -135 2 c-74 1
-141 -1 -147 -3z"/>
</g>
</svg>
